<?xml version="1.0" encoding="utf-8"?>
<!-- Generator: Adobe Illustrator 16.0.0, SVG Export Plug-In . SVG Version: 6.00 Build 0)  -->
<!DOCTYPE svg PUBLIC "-//W3C//DTD SVG 1.1//EN" "http://www.w3.org/Graphics/SVG/1.1/DTD/svg11.dtd">
<svg version="1.1" id="Calque_1" xmlns="http://www.w3.org/2000/svg" xmlns:xlink="http://www.w3.org/1999/xlink" x="0px" y="0px"
	 width="408.422px" height="58.882px" viewBox="0 0 408.422 58.882" enable-background="new 0 0 408.422 58.882"
	 xml:space="preserve">
<polygon points="0.113,0.061 0.34,58.944 371.93,58.944 408.535,0.061 "/>
<g>
	<g>
		<path fill="#FFFFFF" d="M205.173,10.132c-11.813,0-22.037,5.266-24.861,12.806c-2.093,5.585,2.535,8.719,6.81,10.83
			c4.453,2.076,5.007,3.327,4.46,4.785c-1.083,2.888-5.375,4.18-9.148,4.18c-4.029,0-7.901-0.87-10.624-2.388l-0.348-0.194
			l-6.712,7.433l0.445,0.327c2.413,1.774,7.487,2.834,13.573,2.834c12.547,0,22.605-5.206,25.624-13.263
			c1.657-4.423-0.431-7.946-6.368-10.766c-3.531-1.816-5.661-3.02-4.997-4.794c0.673-1.793,3.653-3.723,8.614-3.723l0.305-0.002
			c4.594,0,7.607,1.383,8.165,1.661l0.348,0.173l6.568-7.62l-0.572-0.288C213.797,10.783,210.106,10.132,205.173,10.132z"/>
		<path fill="#FFFFFF" d="M145,10.757l-15.234,17.276c-2.661,3.152-5.385,6.449-8.123,9.829c1.257-2.976,2.478-5.984,3.761-9.27
			l6.836-17.835h-12.66l-15.572,17.385c-3.421,3.947-6.18,7.176-8.681,10.163c1.211-2.992,2.553-6.425,3.863-9.775l6.582-17.773
			H93.946L81.154,50.171h12.765l14.503-15.723c3.373-3.716,6.106-7.056,8.75-10.286c0.075-0.091,0.15-0.183,0.225-0.274
			c-1.43,3.331-2.684,6.457-3.949,9.83l-5.779,16.453h12.558l37.354-39.415H145z"/>
		<path fill="#FFFFFF" d="M84.955,12.123c-2.658-1.34-6.349-1.991-11.284-1.991c-11.812,0-22.035,5.266-24.859,12.806
			c-2.093,5.587,2.535,8.72,6.81,10.83c4.452,2.076,5.006,3.326,4.46,4.785c-1.083,2.888-5.375,4.18-9.15,4.18
			c-4.03,0-7.901-0.87-10.622-2.388l-0.348-0.194l-6.715,7.433l0.445,0.328c2.413,1.773,7.488,2.833,13.576,2.833
			c12.547,0,22.605-5.206,25.624-13.263c1.657-4.423-0.432-7.946-6.37-10.765c-3.529-1.817-5.659-3.021-4.995-4.795
			c0.673-1.793,3.653-3.723,8.614-3.723l0.305-0.002c4.594,0,7.607,1.383,8.165,1.661l0.348,0.173l6.568-7.619L84.955,12.123z"/>
		<polygon fill="#FFFFFF" points="165.04,10.758 140.538,50.171 152.389,50.171 176.89,10.758 		"/>
		<polygon fill="#FFFFFF" points="266.705,8.109 256.094,25.169 240.841,25.169 235.06,34.47 250.256,34.47 238.906,52.828 
			252.229,52.828 280.028,8.109 		"/>
		<polygon fill="#FFFFFF" points="308.379,15.58 301.396,26.809 288.97,26.809 295.954,15.58 286.784,15.58 268.271,45.357 
			277.442,45.357 284.969,33.275 297.341,33.275 289.87,45.357 299.042,45.357 317.552,15.58 		"/>
		<polygon fill="#FFFFFF" points="336.412,21.797 332.445,28.174 325.897,28.174 329.862,21.797 324.144,21.797 313.362,39.14 
			319.08,39.14 323.355,32.277 329.875,32.277 325.633,39.14 331.349,39.14 342.13,21.797 		"/>
	</g>
	<polygon fill="#FF6600" points="213.604,58.944 244.094,9.896 231.602,9.896 201.109,58.944 	"/>
</g>
</svg>
